<svg height="512pt" viewBox="-80 0 512 512" width="512pt" xmlns="http://www.w3.org/2000/svg"><path d="m144.558594 150.917969h-129.558594c-8.285156 0-15 6.714843-15 15v129.527343c0 8.285157 6.714844 15 15 15h129.558594c8.28125 0 15-6.714843 15-15v-129.527343c0-8.285157-6.71875-15-15-15zm-15 129.53125h-99.558594v-99.53125h99.558594zm0 0"/><path d="m337.054688 112.558594h-49.777344v-62.09375l20.792968 20.75c5.867188 5.851562 15.363282 5.839844 21.214844-.027344 5.851563-5.863281 5.839844-15.359375-.023437-21.210938l-45.699219-45.59375c-3.015625-3.011718-6.996094-4.4570308-10.949219-4.367187-.113281 0-.222656-.015625-.335937-.015625-5.496094 0-10.285156 2.964844-12.898438 7.371094l-44.089844 43.984375c-5.863281 5.851562-5.875 15.351562-.023437 21.214843 2.933594 2.9375 6.773437 4.40625 10.621094 4.40625 3.832031 0 7.667969-1.460937 10.59375-4.382812l20.796875-20.75v60.714844h-49.78125c-8.28125 0-15 6.714844-15 15v129.53125c0 8.28125 6.71875 15 15 15h129.558594c8.285156 0 15-6.71875 15-15v-129.53125c0-8.285156-6.714844-15-15-15zm-15 129.53125h-99.558594v-99.53125h34.78125v57.921875c0 8.28125 6.714844 15 15 15 8.28125 0 15-6.71875 15-15v-57.921875h34.777344zm0 0"/><path d="m144.558594 352.46875h-129.558594c-8.285156 0-15 6.71875-15 15v129.53125c0 8.285156 6.714844 15 15 15h129.558594c8.28125 0 15-6.714844 15-15v-129.53125c0-8.28125-6.71875-15-15-15zm-15 129.53125h-99.558594v-99.53125h99.558594zm0 0"/><path d="m337.054688 352.46875h-129.558594c-8.28125 0-15 6.71875-15 15v129.53125c0 8.285156 6.71875 15 15 15h129.558594c8.285156 0 15-6.714844 15-15v-129.53125c0-8.28125-6.714844-15-15-15zm-15 129.53125h-99.558594v-99.53125h99.558594zm0 0"/></svg>